#!OML:ASF F:\VICON\USERDATA\INSTALL\rory3\rory3.ASF
:FULLY-SPECIFIED
:DEGREES
135
root -0.050230233585309786 17.160679755736115 39.34761040925439 2.292165804921298 3.752954815948425 1.5369503974544694
lfemur -6.170932816086246 -1.4061955752535362 -28.32067985307615
ltibia 36.821334883148026
lfoot -22.677217337404247 8.033309920495956
ltoes -30.827779561064137
rfemur -45.548202766236976 -8.83429341908142 18.088373365595544
rtibia 113.0044502696734
rfoot -6.240671266505228 -3.712497915739551
rtoes -18.58438920275267
lowerback nan -0.8162772734680223 -5.009575483847934
upperback -0.5442861665782978 -0.8336952501185599 -0.2766271239965199
thorax -10.752859011419329 -0.4478254285030827 3.770882697112948
lowerneck -22.262311721209606 -2.739765777442498 -1.1177984188325882
upperneck 11.095685698854993 -4.870394952384198 4.722539805527207
head 7.614935366035619 -1.623585284660261 0.7944772587346951
lclavicle -1.4193009282008683e-14 -2.2551328955286742e-14
lhumerus -35.7313669702972 -8.978282356863788 93.80090335328936
lradius 128.014077028869
lwrist 32.44885236947749
lhand -23.497896274941393 -0.22495840928840694
lfingers nan
lthumb 2.637785067378408 29.407146868630285
rclavicle -1.1431206843071815e-14 -2.0192450433928164e-14
rhumerus -59.78483761085341 8.571950706920578 -101.71349415453768
rradius 107.96887232958682
rwrist -10.321818646434549
rhand -19.614719030302474 nan
rfingers nan
rthumb 7.75653469724934 12.012119925234982
136
root -0.05176195460995253 17.222798869855648 39.623733111376495 2.3382818290817333 3.8610505413093517 1.1410793105672092
lfemur -3.745227699171938 -1.6580458132084879 -28.017379725321998
ltibia 35.57658275540596
lfoot -20.874863273316972 7.194280503814325
ltoes -34.14274883982196
rfemur -47.524976524681655 -8.648981241237186 18.987687255928527
rtibia 110.60380341775556
rfoot -5.434219691740574 -2.6941269536452577
rtoes -12.970550181741778
lowerback nan -1.2036544312883204 -4.6533028058885275
upperback -0.6155640588168444 -1.3607199856314842 0.07453221729315751
thorax -10.634983858571744 -0.6456564298478622 4.102726430280518
lowerneck -22.000292447142385 -2.3754265487581634 -0.8603407286165958
upperneck 11.416404057228158 -4.281010263275613 4.475988950407854
head 7.624703519477437 -1.3980376569538056 0.7234116580967311
lclavicle -2.785047373514111e-14 -4.021554916126073e-14
lhumerus -35.66831455203886 -8.460662026531082 93.70539057481658
lradius 129.03731753334614
lwrist 34.17475688315018
lhand -23.88099695185696 -0.9791598541522599
lfingers nan
lthumb 2.2621975395674934 28.612347404806894
rclavicle -2.445935801293543e-14 -3.77952693535966e-14
rhumerus -60.817351535990014 8.814328564796483 -101.38407760218234
rradius 108.8334868145736
rwrist -11.611153803461216
rhand -18.78090390270301 nan
rfingers nan
rthumb 8.555977226894179 12.034026982618052
137
root -0.030912074756595104 17.281817902840356 40.18742501785958 2.4386809068206152 4.226601485234045 0.6502201296670682
lfemur -1.4639102625837594 -2.0880509879392264 -27.4899337486309
ltibia 34.315254121708
lfoot -18.40857966113377 6.096985940007259
ltoes -37.980597246632904
rfemur -49.4884923723861 -8.634105242261139 20.001118364646246
rtibia 107.74436570202575
rfoot -6.098282469679611 -2.4027669318534657
rtoes -14.189856426673327
lowerback nan -1.6587973104889495 -3.8594085521327375
upperback -0.37983567195100465 -1.8835380810216737 0.5095628656432798
thorax -10.053381623355989 -0.8931728232836524 4.24391168193241
lowerneck -22.903008060608688 -2.155337104496236 -0.8567708839597394
upperneck 11.96478711991181 -3.8850072163547105 4.324597999086878
head 7.847418881179848 -1.2333416398733317 0.6910548056169782
lclavicle -2.7258528750636292e-14 -1.137441451897456e-14
lhumerus -35.28455882836562 -8.27981528081601 93.60235220494981
lradius 130.03911878089122
lwrist 36.27649857051437
lhand -23.940277483165318 -0.9144654599062634
lfingers nan
lthumb 2.1983333254071153 28.656709241265492
rclavicle -2.3589396925177965e-14 -8.511561903948565e-15
rhumerus -61.03572651554204 9.093816435296196 -100.577382061365
rradius 109.2683631748273
rwrist -11.724594338190842
rhand -18.26743461659009 nan
rfingers nan
rthumb 9.050585698228842 12.061932842645268
138
root -0.024997416739925588 17.35856445249717 40.24396405170346 2.846857161852915 4.238176763391549 0.1816736946720714
lfemur 0.7504756688444516 -2.2990344282430133 -26.96838055577078
ltibia 32.89269684132343
lfoot -15.628202063870132 4.270207204231812
ltoes -38.568913554377374
rfemur -51.38739741929798 -8.281545969422119 20.931480116841847
rtibia 104.50383240238565
rfoot -6.551980026248713 -2.4698821569081053
rtoes -14.819762196829615
lowerback nan -2.003309320175506 -3.409807673756093
upperback -0.798389804495768 -2.321827060733084 0.9380491626149259
thorax -10.30366001954028 -1.08749423799434 4.658530709766594
lowerneck -22.907161369757596 -1.983375030122823 -0.866729480395392
upperneck 12.715258094021378 -3.508687385796309 4.137797234261596
head 8.025980236937823 -1.1013593400119421 0.6487703428782464
lclavicle -1.518346762105513e-14 -1.2705096902627468e-14
lhumerus -35.638768776095176 -8.186738476772742 93.6163157855122
lradius 130.90705607696654
lwrist 38.421774981800226
lhand -23.792545584467735 -0.7208013740487444
lfingers nan
lthumb 2.3322794634755915 28.84098594464349
rclavicle -1.1414630991481719e-14 -9.472879697592752e-15
rhumerus -61.984892248639724 9.172461809458039 -100.01565031484824
rradius 109.65354574397347
rwrist -10.938958176069505
rhand -18.407873051167098 nan
rfingers nan
rthumb 8.901900145925929 12.010865312412468
